PathFileType	4	(X/Y/Z)	Falisse_et_al_2022_v1.trc
DataRate	CameraRate	NumFrames	NumMarkers	Units	OrigDataRate	OrigDataStartFrame	OrigNumFrames
0	0	4	47	m	0	125	200
Frame#	Time	RASI			LASI			CLAV			RSHO			LSHO			RKNE			RKNE_med			RTHI1			RTHI2			RTHI3			RANK			RANK_med			RTIB1			RTIB2			RTIB3			LKNE			LKNE_med			LTHI1			LTHI2			LTHI3			LANK			LANK_med			LTIB1			LTIB2			LTIB3			RPSI			LPSI			RELB			LELB			RW1			RW2			LW1			LW2			hum_l2			hum_r2			rad_l2			rad_r2			LH			RH			Foot_r1			Foot_r4			Foot_r6			Foot_r7			foot_l1			foot_l4			foot_l6			foot_l7		
		X1	Y1	Z1	X2	Y2	Z2	X3	Y3	Z3	X4	Y4	Z4	X5	Y5	Z5	X6	Y6	Z6	X7	Y7	Z7	X8	Y8	Z8	X9	Y9	Z9	X10	Y10	Z10	X11	Y11	Z11	X12	Y12	Z12	X13	Y13	Z13	X14	Y14	Z14	X15	Y15	Z15	X16	Y16	Z16	X17	Y17	Z17	X18	Y18	Z18	X19	Y19	Z19	X20	Y20	Z20	X21	Y21	Z21	X22	Y22	Z22	X23	Y23	Z23	X24	Y24	Z24	X25	Y25	Z25	X26	Y26	Z26	X27	Y27	Z27	X28	Y28	Z28	X29	Y29	Z29	X30	Y30	Z30	X31	Y31	Z31	X32	Y32	Z32	X33	Y33	Z33	X34	Y34	Z34	X35	Y35	Z35	X36	Y36	Z36	X37	Y37	Z37	X38	Y38	Z38	X39	Y39	Z39	X40	Y40	Z40	X41	Y41	Z41	X42	Y42	Z42	X43	Y43	Z43	X44	Y44	Z44	X45	Y45	Z45	X46	Y46	Z46	X47	Y47	Z47
125	1.37833012	1.8422302428908894	0.9392564357267296	0.12924831042409327	1.818846647221932	0.926072169915978	-0.12570114355175147	1.845230911195828	1.3609988932456079	-0.004973788061780244	1.7677976420783097	1.3954666682240084	0.1888822592796884	1.7471795036280597	1.3992444222147584	-0.15485140183859525	1.8010828077819323	0.45342251084095714	0.10507339659232814	1.7300976953039742	0.43643190691898687	0.01224414483179359	1.8469441911529756	0.7558166140092052	0.17798550910338837	1.792572929433251	0.7432245023220447	0.21293642754439018	1.82707462292433	0.7029853963340876	0.18762486415787497	1.7085901004873907	0.06677392439310798	0.08896388137836646	1.703132125982541	0.09097448631491512	0.007435478861927455	1.7719137534392742	0.2746338928762939	0.11587387011752573	1.704070100066552	0.2732806568136103	0.14360607857658814	1.7385170816686637	0.23111665979398663	0.1250442052700764	1.86288066060564	0.4730810818173171	-0.12670199362727547	1.8586103717260107	0.46476164403023634	-0.03229680478880038	1.8866640730347053	0.7056222671251413	-0.12491501266209658	1.8412480276053345	0.6937446139820657	-0.17647952178450071	1.8778556898502057	0.6510072411121999	-0.1507354718988943	1.5450444394357095	0.199220183711528	-0.09465901172242308	1.5577250697520544	0.21315573580062508	-0.010683297539660158	1.7075273264195157	0.3173883407317637	-0.11456729747715479	1.659894685704547	0.35821168616184257	-0.1378278548163577	1.653946760817953	0.30095937583255383	-0.12321875580405632	1.6652436015347805	0.9814168323701331	0.04084728289047782	1.6622187275196332	0.9848090595737746	-0.007424752671313878	1.716110443425857	1.0865635609886108	0.225879874884693	1.6709561346667043	1.075499444701343	-0.20109511630122479	1.8054153468868335	0.8591216046591734	0.26678952707824505	1.7311121944743124	0.8661403455862103	0.29243759371066474	1.927786579451621	0.9666247314356176	-0.15049407001006654	1.8756275619043126	0.9062733548323663	-0.16599684773825701	1.720303737917732	1.2405440379008421	-0.2072921691566699	1.752253229655689	1.2358993778341278	0.22152994623467379	1.8067830525711241	1.0029502829127672	-0.20025782825833627	1.7589105694563403	0.9480550995092947	0.27438024547370016	1.9579607002599038	0.900917236093291	-0.16423367020615315	1.7853559112142723	0.8159088763227103	0.3107114004074904	1.654184253682381	0.06457384474395492	0.05660799735598587	1.7499090962464119	0.034157597285875904	0.08870896801555034	1.8525199709580769	0.04484691840917418	0.048777893084378625	1.8775542730977506	0.04339403520574513	0.0053280347490256424	1.4894783163471677	0.21959999779830985	-0.05264647340546215	1.552531156364697	0.1370965057723869	-0.09152614818563441	1.6375126342805126	0.08566030493919992	-0.06084207888561522	1.6620045309090252	0.06759061541580785	-0.023658991810619888
126	1.38935676	1.8542664152356088	0.9399360505834555	0.12978402735390193	1.8327147224688967	0.9275458964517976	-0.12536661464694077	1.8586202942771355	1.3619118034599818	-0.0038289075636290058	1.7801635659164161	1.396183651557788	0.1896500007750801	1.7614441028145817	1.400508138446428	-0.15418584575415595	1.8034110957765426	0.45319547621819917	0.1062335188329109	1.7321203725194658	0.43757824002984924	0.013397257011990099	1.856387921703225	0.7546626757316457	0.1781544462373471	1.8017031814433024	0.7434869418765926	0.2130978895867377	1.8352597027640787	0.7023522083922482	0.18795586652668506	1.7092439244828672	0.06756088266279109	0.0892924843444181	1.7041232481787203	0.09190474584445879	0.007784864458362677	1.7736153722720276	0.27503930686096056	0.11665704567317273	1.7056951913318854	0.27401211801743275	0.1442153809087123	1.739962082275051	0.2316895189038618	0.12568113918763804	1.888304372314484	0.47829867877549187	-0.12693701046404823	1.883996823168716	0.4698004791629001	-0.03254943863630136	1.9050711241375056	0.7114493489808384	-0.1249652376039801	1.8601916468317685	0.6982394645456864	-0.17667525498589698	1.897990097768331	0.6566086996647725	-0.15083891233467325	1.5820286966085046	0.19182621775108943	-0.09628412605278072	1.593881010280008	0.20612874854405328	-0.012249140223654462	1.7395541061206137	0.31663143853524073	-0.11552325183606896	1.6903449191954278	0.35549473118019104	-0.13885923110136383	1.6867222722648356	0.2980207517451403	-0.12435927456471849	1.6779056166291795	0.9823258705903379	0.04024920838758773	1.675225832575347	0.9858688048744209	-0.008032391208645798	1.7319881956798067	1.086258941486978	0.22574640247203315	1.686242682117241	1.076552766304886	-0.201292401224478	1.8277445904533538	0.8601038868621531	0.26315411627564483	1.7533131927770012	0.8645747413568918	0.28900025727680284	1.9382261392747433	0.9583374276441561	-0.1549830571030788	1.8835492718632532	0.9006066270675952	-0.1717396295913056	1.7350377890382567	1.2417796798001373	-0.20698553327120514	1.7662678285172562	1.2360473470145743	0.22190590632395385	1.818560981620331	1.0008985290368493	-0.2030104819186556	1.778714140356062	0.9475309103656697	0.2722100734557491	1.9656005741404536	0.8918368034111319	-0.17063669619001676	1.809009472426719	0.8156426584910248	0.3064097093335524	1.65496802390306	0.06596750028932451	0.056957161810549696	1.7503617500542075	0.034396407379822386	0.08892853985600312	1.8530685789587313	0.04405666165508097	0.04898194145209628	1.8778640580532564	0.04313314878190864	0.005494620425349567	1.5251294697728182	0.20917329989882547	-0.05389734421519649	1.592603194877931	0.13075763028487314	-0.09380217000349954	1.6802104893669934	0.08357300293863061	-0.06367544850547617	1.705507190872029	0.06609156272902474	-0.02668506531395206
127	1.4003834	1.8662897683791797	0.940394695340739	0.13030099279854296	1.8466435253619269	0.9288147008612085	-0.12504146422167187	1.8720233381459246	1.362616835525733	-0.0026903498522419453	1.7924933894892856	1.396692491843525	0.19038461663028647	1.7757636891493436	1.4015602863034362	-0.1535465255301453	1.8056142016618146	0.45299218524421037	0.10739593206766557	1.7340851103910206	0.4387627092716187	0.014519950710361995	1.8657252846848809	0.7533531322510004	0.1783296721173667	1.8107442994527025	0.7436172970112229	0.21323908134595626	1.843334730649659	0.701600034860385	0.18828630151532033	1.7098595125970526	0.06836814425376031	0.08959567562538386	1.70511370223325	0.09284760193372321	0.008105979739369933	1.7752340046840145	0.27546932353655956	0.1174358684944871	1.7072261036675425	0.2747614524399801	0.14478714368707535	1.7413268025710207	0.2322845775498741	0.12629937041178174	1.9130038770042699	0.4833998007256332	-0.12702068368390065	1.9085745442800341	0.47473844587861314	-0.03265358117635968	1.9231574776810538	0.7169306355005652	-0.12489925144868352	1.8788696324277416	0.7024803862813016	-0.17678731836184022	1.917731254820991	0.6619238009330115	-0.1508200742027763	1.6197671667054088	0.18400035696867922	-0.09805077777479758	1.630672885896871	0.1986412880863893	-0.013945920633986308	1.7716536993256404	0.31572623950052836	-0.1164767056388785	1.7208481116130383	0.3524113427051777	-0.13991733236592013	1.7197335469699684	0.2948031516324038	-0.12554079977185714	1.690590126358362	0.9830286048726752	0.039589926856050166	1.6882693334759604	0.9867251447610339	-0.008698746751104224	1.747715286998906	1.0858206864496658	0.22557771414987235	1.701728548938573	1.0773663867865848	-0.20155457100383123	1.8503096851811331	0.8612559402415839	0.25932125939599127	1.775793125349827	0.86298062057418	0.28525101630341165	1.948248854198357	0.9498544201913502	-0.15976673750395073	1.8910896809112159	0.8949708662635646	-0.17776152297319037	1.7499235712289358	1.2427865977930646	-0.20672184998848234	1.780154811726752	1.2360305505830922	0.2222485969872557	1.8302685647513552	0.9987437042999833	-0.20590045666875945	1.798608568675667	0.9469580995699669	0.2698860251016754	1.972698951060652	0.8827099275523458	-0.1773888541741485	1.8329857948349944	0.8155005612096391	0.30180866834794867	1.6557375639253	0.06737457971221736	0.057260621423220595	1.750774932260769	0.034653683732366214	0.08913706251644773	1.8535825856055475	0.04328859302513333	0.04921502980799969	1.8781582888441426	0.0429129151621532	0.005704955808434688	1.5616616882708698	0.19812236489849216	-0.05535020231732486	1.633468416550074	0.12416574748506498	-0.09619537897700105	1.7235378226873697	0.081537422527995	-0.06654113066169393	1.749651050218258	0.06476418985136628	-0.029732371614835336
128	1.41141004	1.8783177358619179	0.9406211042814197	0.13079669757371523	1.8606445304994657	0.9298635256115418	-0.12472585291319815	1.8854538220460224	1.3631019488873206	-0.001559520973370275	1.8048037762677447	1.396980845029429	0.19108496060136726	1.7901502593625211	1.402388732281212	-0.1529328267904009	1.8077452864954255	0.4528107929445493	0.10854133065026067	1.736045088383328	0.4399787525660264	0.015593726442447428	1.8749842103753085	0.7518855163832207	0.17850470093799042	1.8197269002235115	0.7436076403014533	0.21335392646696416	1.851332766999199	0.7007250377320966	0.18860762719276825	1.7104427851657225	0.06919768428511441	0.0898707925455756	1.7061088104069349	0.09380257034306644	0.008395929276130941	1.7767997235866535	0.27591993487802835	0.11819863835397734	1.7086941468883508	0.2755333711783583	0.14531226828274227	1.742636939573888	0.23290191828780143	0.12688982610042235	1.9368954337841826	0.48826632353785054	-0.12695126671627943	1.9322628322360824	0.4794558195742299	-0.03260773426894999	1.940910932980065	0.7219822933878622	-0.12472234873099897	1.8972553078916	0.7063953243381978	-0.17681675554828186	1.9370479543960035	0.6668619567560596	-0.15068213844459707	1.6582512472111044	0.1758022321709517	-0.09990875961972634	1.6680998604314716	0.1907433840850989	-0.015726306775521212	1.8037667882854715	0.3146547988063583	-0.11739972249881579	1.75136896806187	0.3489354720929562	-0.14097452676412942	1.7529398921685766	0.29130512088280086	-0.12673003873211908	1.7033136998984972	0.9835138051306056	0.038871099707723164	1.7013646905612765	0.9873661177452154	-0.00942183492675798	1.7632570970587786	1.0852425184672911	0.22537342178550782	1.7174096580126588	1.077935218222103	-0.20187997512533656	1.8730743554846034	0.8626177826283249	0.255299634331169	1.7985323152574606	0.8613959731204812	0.2811846864833624	1.957844272566734	0.9412500789157012	-0.16482274466217647	1.8982654484538366	0.8894378252758002	-0.18403320995525344	1.7649699756856045	1.2435551967600504	-0.2065001533730227	1.793903910754459	1.2358388273389431	0.22255675120312246	1.8419131055354634	0.9965143726580817	-0.2089096269578648	1.8185653630965226	0.9463532365344467	0.26740844698341787	1.9792622503999202	0.8736302379673255	-0.18445833632416994	1.857257040614299	0.8155308270127875	0.2969107262140662	1.6564974006431827	0.06880065355826498	0.05751839773798304	1.751151532072626	0.03492661806642552	0.0893305185956233	1.854063946747924	0.04252940092851899	0.049468550019294844	1.8784367465542167	0.04271766554419412	0.0059493707709471	1.5991006141728392	0.1865337606583448	-0.056962487996895295	1.6750896554963846	0.11737589552753785	-0.09863947482460772	1.7674115629551783	0.07958104434811397	-0.06936045364541361	1.7943360833939865	0.06363887802515762	-0.03271562834062061
